<?xml version="1.0" encoding="utf-8"?>
<!-- Generator: Adobe Illustrator 22.0.1, SVG Export Plug-In . SVG Version: 6.00 Build 0)  -->
<svg version="1.1" id="Isolation_Mode" xmlns="http://www.w3.org/2000/svg" xmlns:xlink="http://www.w3.org/1999/xlink" x="0px"
	 y="0px" viewBox="0 0 740 620" style="enable-background:new 0 0 740 620;" xml:space="preserve">
<style type="text/css">
	.st0{fill:#F5B4A5;}
	.st1{fill:#C2796D;}
	.st2{fill:#EDBFB1;}
	.st3{fill:#BB726D;}
	.st4{fill:#73D0FF;}
	.st5{fill:#69549D;}
	.st6{fill:#43AEDE;}
	.st7{fill:#32B0E3;}
	.st8{fill:#464270;}
	.st9{fill:#37365D;}
	.st10{fill:#69394C;}
	.st11{fill:#7A4248;}
	.st12{fill:#954F73;}
	.st13{fill:#3A5372;}
	.st14{fill:#8CD8ED;}
	.st15{fill:#4AC5E8;}
	.st16{fill:#46B0DC;}
	.st17{fill:#2F2A3B;}
	.st18{fill:#423D6A;}
	.st19{fill:#F5BBAC;}
	.st20{fill:#FCC4B0;}
	.st21{fill:#D98D7E;}
	.st22{fill:#3A438D;}
	.st23{fill:#3C8FB8;}
	.st24{fill:#047DA5;}
	.st25{fill:#AC4142;}
	.st26{fill:#E3B1A7;}
	.st27{fill:#7EBAC8;}
	.st28{fill:#EDB8A8;}
	.st29{fill:#6882C1;}
	.st30{fill:#6872C1;}
	.st31{fill:#D99385;}
	.st32{fill:#5C9EC8;}
	.st33{fill:#6888C8;}
	.st34{fill:#D35958;}
	.st35{fill:#E3A28E;}
	.st36{fill:#DC5E58;}
	.st37{fill:#F0CFAE;}
	.st38{fill:#E39688;}
	.st39{fill:#68A5C8;}
	.st40{fill:#D67E6D;}
	.st41{fill:#F16B62;}
	.st42{fill:#474C9F;}
	.st43{fill:#EC384B;}
	.st44{fill:#85D4E7;}
	.st45{fill:#7D4C9E;}
	.st46{fill:#FDFDFD;}
	.st47{fill:#FFFFFF;}
	.st48{fill:#F2EA7F;}
	.st49{fill:#F37536;}
	.st50{fill:#78BE40;}
	.st51{fill:#0595C6;}
	.st52{fill:#EE3E32;}
	.st53{fill:#652D89;}
</style>
<path class="st0" d="M752.6,333c-18.4,27.5-25.4,38.7-41.9,52.6c-2.3,1.9,6.7,9.9,7.2,9.7c19.9-5.5,68.1-50.2,65.7-66.9
	c-0.2-1.2-13-25.6-43.8-59.8c-21.5,9.7-30.5,20.3-25,27C717,298.5,752.1,333.4,752.6,333z"/>
<g>
	<path class="st1" d="M578.7,258.3c0,0,15.1,20,29.5,24.1c6.8,1.9,12.9-3,18.3-9c11.3-12.8,16.2,23.6-19.1,40.7
		c-12.4,6-55.6-31.1-55.6-31.1L578.7,258.3z"/>
	<path class="st1" d="M370.5,269.2c0,0-9.9,21.1-22.2,27.6c-5.8,3.1-12.2-0.2-18.2-4.7c-12.6-9.5-10.2,24.6,24.9,33.4
		c15.6,3.9,52-49,44.4-38.9L370.5,269.2z"/>
	<path class="st2" d="M402.1,289c0,0,10.7,20.7,23.3,26.7c5.9,2.8,12.2-0.7,18-5.5c12.2-10,14.8,33.5-26.6,31.5
		c-12.7-0.6-36-29.6-36-29.6L402.1,289z"/>
	<g>
		<path class="st3" d="M399.1,616.7c2.3,33.4,8.8,145.3,26.8,198.5c1,2.9,2.6,0.3,5.7,0.6c4.7-15.5,29-126.2,25.7-168.9
			c-0.9-10.9-3.2-21.7-3.3-32.7c0-8,28.8-153.8,14.8-172.6c-5.6-7.5-54.9-21.2-61.4-15.8C380.8,447.6,396.5,578.9,399.1,616.7z"/>
		<path class="st3" d="M551.8,616.7c-2.3,33.4,6.9,45.9-24.8,198.5c-0.6,3-2.6,0.3-5.7,0.6c-4.7-15.5-29-126.2-25.7-168.9
			c0.9-10.9,1.2-21.7,1.3-32.7c0-8-26.8-153.8-12.8-172.6c5.6-7.5,54.9-21.2,61.4-15.8C572,447.6,554.3,578.9,551.8,616.7z"/>
		<path class="st4" d="M396.6,433.8c-4,21.3-8.4,44.5-8.4,56.5c4,14.4,64.4,31.4,83,28.1c0.5-0.1,7-41,6.7-50.5
			c-0.3-8.1-0.3-26.7,1.2-34.7c-20.7-9.5-39.7-1.6-65.2-10c-3.7-1.2-11.4-3.8-15.2-2.4C393.4,422.6,397.9,426.4,396.6,433.8z"/>
		<path class="st4" d="M552.9,435.7c3.6,7.1,10.4,45.9,8.4,52.9c-3.4,14.5-60.7,33.8-79.4,31.3c-0.5-0.1-10.1-45-10.2-54.5
			c-0.1-8.1,4.5-23.1,2.7-30.9c20.3-10.3,35.9-2.5,61.1-11.9c3.6-1.4,9.2-9.2,13-8.1C553.8,416.1,549.5,429.1,552.9,435.7z"/>
		<path class="st5" d="M433.1,825.9c-0.6-3.8-1.1-6.2-1.5-10l-5.5-0.1c-2,0.9-5.2,3.2-10.2,5.1c-5.9,2.2-9.4,2.4-18,5
			c-1.4,0.4-5.5,1.5,0.4,2.1c10.7,1.1,22.5,1,33.2-0.9C432.1,827.1,433.2,826.6,433.1,825.9z"/>
		<path class="st5" d="M521.1,815.7c-1.7,7.5-3.5,12-6.4,19.2c-1.3,3.4,14.2,4.5,16.2-1.4c0.3-1-3.8-16.1-4-17.8
			C527,815.7,526,815.7,521.1,815.7z"/>
		<path class="st6" d="M475.3,502.4c0.7-6.4-0.4-13.3,2.6-19.1c0.2-0.3-0.3-0.7-0.6-0.4c-3.3,4.6-3.2,10.1-3.6,15.5
			c-0.6,7.4-2.3,14-4.6,21.1c-0.2,0.7,0.9,1,1.3,0.4C473.7,514.7,474.7,508.3,475.3,502.4z"/>
		<path class="st7" d="M482.5,463.6c-0.6-0.2-1.2-0.4-1.9-0.5c0.8-5.8,1.1-16.1,1-21.9c0-0.3-0.5-0.4-0.5-0.1
			c-1,5.8-1.8,15.8-2.1,21.7c-1.1-0.2-2.3-0.2-3.5-0.2l0-0.9c0,0,0,0,0,0c-0.1-5.2-0.1-14.5-0.7-19.7c0-0.3-0.5-0.3-0.5,0
			c-0.5,5.5-0.4,15.1-0.4,20.7c-2.4,0.1-4.7,0.3-7,0.6c-0.3,0-0.3,0.6,0,0.5c4.2-0.3,8.2,0.4,12.2,0.9c0.3,0.4,0.9,0.5,1.2,0.2
			c0.7,0.1,1.4,0.2,2.1,0.3C483.2,465.1,483.3,463.8,482.5,463.6z"/>
		<path class="st7" d="M489.3,483.1c-1.7-3.9-7.9-4.5-11.6-5.2c-5.5-1.2-11.7-2.3-17.3-1.8c-0.3,0-0.4,0.4-0.1,0.6
			c8.4,3.1,20,1.8,27.3,7.7C488.6,485.2,489.8,484.2,489.3,483.1z"/>
		<path class="st7" d="M485.9,486.4c-5.4-3.7-13.6-6.6-20.3-6.3c-0.4,0-0.5,0.6-0.1,0.7c3,1.2,6.3,1.8,9.3,3
			c3.4,1.3,6.5,3.1,9.9,4.6C486.1,489,487.2,487.3,485.9,486.4z"/>
		<path class="st7" d="M552.3,445.2c-0.1-0.5-0.5-0.8-1-1c-3.9-1.2-7.7-0.9-11.6-2.7c-4.4-2-7.4-5.4-10.1-9.3
			c-0.3-0.4-0.9-0.1-0.7,0.4c2,4.5,5.5,8.1,9.7,10.7c2.1,1.3,4.5,2.3,6.9,2.8c0.7,0.2,1.8,0.1,2.5,0.4c1.8,0.8,1.8,2.1,1.7,3.8
			c-13.4,0.7-20.6-8.9-28-18.8c-0.5-0.7-2.1-0.3-1.6,0.7c5.1,12.3,17.7,21.5,31,20.8c0.7,0,1.3-0.6,1.3-1.3
			C552.5,449.5,552.8,447.2,552.3,445.2z"/>
		<path class="st7" d="M430.8,434.9c-3.2,5.5-8.4,9.2-14.1,11.7c-2.6,1.2-5.4,2.3-8.2,2.9c-2.2,0.5-5.8,0.6-7-2
			c-0.9-1.7,1.6-3.1,2.8-3.5c3.9-1.1,7.8-1.2,11.6-3.1c3.8-1.9,7-4.6,9.6-8c0.2-0.3-0.2-0.5-0.4-0.3c-3.8,3.3-7.9,6.1-12.8,7.7
			c-1.9,0.6-3.9,1.1-5.9,1.3c-1.4,0.2-3.5-0.1-4.8,0.3c-3,1-3.5,6.8-1.2,8.9c3.8,3.6,12.1-0.1,15.8-1.7c6.2-2.6,13.4-6.8,16.2-13.3
			C432.9,434.7,431.4,433.7,430.8,434.9z"/>
		<path class="st7" d="M563.5,490.3c-0.7-1.2-0.9-1.3-2-2.1c-1.4-0.9-2.5,1-1.9,2.1c0.2,0.4-0.2,1.7-0.6,2.8c-3.5-1.4-6.6,4.4-9.8,5
			c-0.5,0.1-0.9,0.6-1,1.1c-0.1,0.9-2.9,1-3.5,1.4c-1,0.7-1,1.6-1.8,2.2c-1.7,1.4-3.7,0.5-5.3,2.2c-1.7,1.8-0.7,1.7-3.7,2.3
			c-1.6,0.3-3,1-4.6,1.5c-2.2,0.7-4.8,0.1-6.8,0.9c-0.9,0.3-1.5,1-2.4,1.3c-2.1,0.5-3.1-0.7-4.9,1c-1,0.9-0.5,1-1.7,1.5
			c-1.2,0.5-2.3,0.5-3.6,1.1c-0.7,0.4-1.4,1.2-2.2,1.5c-1.5,0.5-3.5-0.1-5,0.3c-0.7,0.2-1.2,0.5-1.8,0.8c-1.1,0.5-1.7,1.1-2.9,1.2
			c-0.3,0-0.6-0.4-0.9-0.4c-2,0.1-4.6,1.4-6.5,0.4c-0.6-0.3-1.4-0.1-1.7,0.5c-0.1,0.2-3.2,0.5-3.7,0.6c-0.3,0-4.2-0.8-4.2,0.6
			c0,2.9,0.8,2.8,1.4,2.9c1.8,0.2,3.9-0.6,5.6-1c1-0.2,1.7-0.3,2.3-0.8c1.1,0.5,2.1,0.6,3.5,0.5c0.6,0,1.1-0.5,1.7-0.6
			c1.3-0.1,1.9,0.6,2.8,0.6c1.6-0.1,1.5-0.2,2.8-1c1.9-1.1,2.7-1,4.9-1.3c2.2-0.2,3.4-1.7,5.3-2.4c1.6-0.6,3.7,0,5.2-0.9
			c0.5-0.3,0.4-1.1,0.8-1.4c1-0.7,1.2-0.4,2.5-0.5c1.1-0.2,1.8-0.7,2.7-1c2-0.6,4.2-0.2,6.4-1c2.3-0.8,3.8-1.4,6.3-1.7
			c1.5-0.2,2,0,3.1-1.1c0.5-0.5,0.7-1.6,1.2-2c2.1-1.6,1.9-0.2,3.3-0.6c1.6-0.5,1.4-0.8,2.5-1.8c1.7-1.6,2.8-1.7,4.5-2.8
			c1.7-1.2,7.1-7.6,8.9-5.7c0.8,0.9,2.2,0.2,2.4-0.8c0.3-1.1,0.8-2.2,1.1-3.2C563.2,492.5,564.1,491.4,563.5,490.3z"/>
		<path class="st7" d="M472.5,518.3c0.4-1.8-2.4-2.6-2.8-0.8c0,0,0,0.1,0,0.1c-0.1,0.1-0.2,0.1-0.3,0.2c-0.3-0.1-0.7-0.2-1-0.1
			c-0.2-0.2-0.4-0.4-0.8-0.6l-1.4-0.6c-1.2-0.5-2.2,1-1.7,2.1c-0.5-0.1-1-0.2-1.5-0.1c-0.2-0.6-0.9-1.1-1.6-1.2
			c0-0.1-0.1-0.1-0.1-0.2c-0.2-0.4-0.8-0.7-1.3-0.7c-0.8,0-1.5,0-2.3,0c-0.8-0.5-1.6-1-2.4-1.2c-1.7-0.5-3.8-0.1-5.5-0.3
			c-0.5-0.2-1.1-0.4-1.6-0.6c-1-0.4-1.9,0.1-2.1,0.9c-0.2,0.1-0.5,0.2-0.6,0.1c-0.5-0.2-0.7-1-1.2-1.3c-0.9-0.6-4.8-0.6-5.1,0.6
			c0.3-1.1-0.7-2-1.8-1.8c-0.5,0.1-1,0.2-1.6,0.3c-2.2-1.8-7.6-2.9-8-1.3c0.2-1-0.5-1.7-1.4-1.8l-2.3-1.9c-0.4-0.8-1.3-0.8-2-0.5
			c-0.3,0.1-0.6,0.2-1,0.2c-1.4-0.3-2.8-0.7-4.1-1.2c-1.5-0.7-3-1.5-4.2-1.7c-0.6-0.1-1.2,0.2-1.6,0.7c-0.6-0.4-1.2-0.6-2-0.5
			c-0.2-0.5-0.5-1-0.7-1.6c-0.2-0.5-1.1-0.9-1.7-0.7c-1.6,0.6-4.5-2.8-4.7-3.6c-0.2-1-1.3-1.3-2.2-0.9c-0.5-0.3-1.1-0.6-1.6-0.9
			c-0.1-0.6-0.8-1.1-1.4-1.1c-0.4-0.3-0.8-0.6-1.2-0.9c0-0.9-0.9-1.7-1.8-1.4c-0.3-0.8-0.6-1.6-1-2.4c0.1-1.2-1.4-1.6-2.2-0.9
			c-0.1-0.5-0.3-1.1-0.4-1.6c0.5-0.2,0.5-1.1-0.1-1c-4.5,0.2-3.2,5.7,0.1,5.4c0.2,1.8,1,3.5,2.8,3.5c0.4,1.2,1.4,2,2.8,2.2
			c0.8,1.5,2.2,2.3,3.9,2.1c1.2,2.5,3.8,4.8,6.6,4.6c0.2,0.5,0.5,1,0.7,1.6c0.2,0.5,1.1,0.9,1.7,0.7c1.5-0.5,2.5,2,3.7,2.2
			c1.1,0.2,2.1-0.4,3.2-0.2c2.8,0.3,3.9,1.9,6.8,0.9c0.7,0.8,1.6,1.3,2.6,1.6c0.3,0.8,1.1,1.2,2.2,1.5c0.4,0.1,6.7,0.9,6.7,0.9
			c0.2,0.8,1,1.1,1.8,1c0.3,0,0.6-0.1,0.8-0.1c0.4,0.8,1.2,1.3,2.3,1.6c0.5,0.1,1.1-0.2,1.6-0.2c1.1,0,2.3,0.2,3.4,0.5
			c0.7,0.2,1.4,0.6,2.2,0.8c0.4,0.1,0.8-0.6,1.1-0.5c0.2,0.1,0.2,0.8,0.5,0.9c1.3,0.5,1.2,0.8,2.8,0.9c2.4,0.2,4.7,1.2,6.9,0.4
			c0.8,1,1.8,1.3,2.8,1.1c0.4,0.3,0.9,0.4,1.3,0.3l3.1,0.4c0.4,1.2,2,1.4,2.7,0.3c0.3-0.5,0.6-1,0.8-1.5c0.1,0,0.3,0,0.5-0.1
			c0.1,0.1,0.2,0.2,0.3,0.3c0.7,0.8,1.7,0.5,2.3-0.3c0.6,0,1.1-0.3,1.4-1l0.1-0.3c0.1-0.2,0.1-0.3,0-0.5
			C472.4,518.9,472.5,518.6,472.5,518.3z"/>
		<path class="st8" d="M429.6,200.7c-40.1-2.5-49.9,43.8-60,59.6c1.3,15.6,16.4,32.9,27,34.9c4.8,0.9,22.1-16,28.7-26.1
			c2.3-3.5,0.4-4.7,2.1-9c4.1-5.7,7.1-12.1,7.5-20.1C435.4,230.4,433.9,203.5,429.6,200.7z"/>
		<path class="st8" d="M517.7,238.9c0.7,8.2,4.1,14.8,8.7,20.8c2,4.5-0.1,5.7,2.5,9.4c7.4,10.5,27,26.6,32.1,25.7
			c11.4-1.9,31.5-21,27.8-35.3c-11.4-16.5-20.1-53-44.1-57.4C540.1,204.9,516.8,228.9,517.7,238.9z"/>
		<path class="st8" d="M537.5,357.4c0.2-45.3,5-48.9,6.4-84.5c1.2-29.1,6.6-67.1,5.5-69.5c-0.9-2-25.4-6.3-57.8-7.9
			c-23.1-1.1-71.2,3.3-78,7.9c-9.1,6.1,4.6,43.6,4.4,57.8c-0.6,52.3,4.3,44.9-2.1,89.8c-2.7,19-17.6,37.6-21,71.9
			c42.8,33.7,146.8,19.4,159.8-6.4C554.6,406.1,537.4,386.5,537.5,357.4z"/>
		<path class="st9" d="M419.2,301.1c-3.3-19.4-1-46.8,4.6-68.7c0.2-0.6-5,34.1-4.6,54.6c0.3,21.1-0.7,29.8-1,45.2
			C418.5,318.8,422.1,318,419.2,301.1z"/>
		<path class="st9" d="M542.3,241.7C542.3,241,542.3,241,542.3,241.7c0.5,10.3,2.6,20.9,1.9,31.2c-0.9,12.7-1.5,22.7-3.2,34.9
			c-2,14.1-3.3,30.4-3.3,30.4c-2-18.1-1-19.1,1-31.1C541.1,292.7,542.7,261.9,542.3,241.7z"/>
		<path class="st10" d="M435.7,191.4c5-0.5,9.9-2.5,12.2-7c1.1-2.1,4-4.2,6.8-0.5c3.7,5,8.9,6.5,14.6,4.1
			c5.7-2.4,14.7-12.1,20.2-9.2c4,2.2,5.9,6.9,8.7,10.6c2.7,3.7,12.1,5,15.1-1.3c0.9-1.9,2.8-3.4,4.1-1.8c5.5,7,11.3-1.4,13-1
			c1,0.3,1.7,1.2,2.6,1.8c3.5,2.8,9,0.8,11.9-2.6c2.9-3.4,4.1-8,5.9-12.1c1.9-4.4,4.7-8.4,6.1-13c1.7-5.8,1.2-11.9,0.4-17.9
			c-2.1-15.3-5.7-30.2-9.3-45.2c-3-12.3-6.4-25.6-16.2-33.6c-10.4-8.6-25.1-8.9-38.6-8.2c-10.8,0.6-21.7,1.6-31.8,5.3
			c-10.1,3.7-17.6,10.3-22.7,19.8c-3.2,6-0.7,12.7-2,19.4c-1.8,8.7-5.6,17.5-5.7,26.4c0,6.5-3.1,13-4.2,19.4
			c-1.2,7.1-4.8,13.5-7.7,20.2c-3.2,7.7-2.2,12.6,2.9,18.9C425.4,188,429.7,192,435.7,191.4z"/>
		<path class="st3" d="M500.2,181.5c-0.1-1.8,0.7-9.4,0.7-9.4c-0.2-6.1-27.1-5.1-29.8-2.5c-0.2-0.5-0.6-0.5-0.6,1
			c-0.5,2,0.9,10.7-1.2,17.3c-2.2,7-5.1,7.3-5.8,10.5c-2.3,10,6.1,22.7,22.7,22.7c13.9,0,20.8-12.4,20.8-21.8
			C506.9,195.5,500.8,196,500.2,181.5z"/>
		<g>
			<path class="st1" d="M533,99.9c-0.2-5.6-1.9-11.3-3.3-16.3c-1.5-5.2-3.5-11.1-7.2-15.2c-6.9-11.7-20.9-16.8-35.2-17.6
				c-15.1-0.8-31.6,6.3-36.2,20.6c-6.9,12.9-6.7,30.2-6.7,44c0.1,18.5,1.8,38,14.7,52.4c10.1,11.3,26.2,15.7,40.5,10.2
				c4.9-1.9,9-4.7,12.6-8.1c9.9-6,15.9-21.3,18.3-31C533.4,126.5,534.7,112.9,533,99.9z"/>
			<path class="st1" d="M541.2,111.6c-4.5-1.3-7.8,2.2-10.2,5.5c-0.5,0.6-0.2,1.2,0.2,1.6c-0.7,1.2-1.2,2.5-1.6,3.7
				c-2.1,7.1-2.7,15.1-3.5,22.5c-0.1,1,0.8,2.2,1.8,2.4c11.1,2.5,19-15.4,19.7-24.3C548,118.3,546.1,113,541.2,111.6z"/>
			<path class="st1" d="M432.9,121.6c0.7,9.4,4.6,28.3,15.7,25.6c1-0.2,1.9-1.4,1.8-2.5c-0.8-7.8-1.3-16.2-3.5-23.7
				c-0.4-1.2-0.9-2.6-1.6-3.9c0.5-0.4,0.7-1,0.2-1.6c-2.4-3.5-5.6-7.2-10.2-5.8C430.5,111.1,432.5,116.7,432.9,121.6z"/>
		</g>
		<path class="st11" d="M570,153.4c3,0.9-0.4,5.8-3.3,2.6c-2.1-2.3-0.9-7.5,3.3-9.6c1.3-0.7,2.8-1,4.2-1.6
			c5.6-2.7,6.5-12.6,0.1-14.5c-1.2-0.4-2.4-0.7-3.3-2.5c-2.8-5.4,3.6-4,5.4-11.6c0.9-3.9-2.2-7.9-2.7-9.5c-0.7-2.6,2.7-8.6-4.7-13.5
			c-8.7-5.7-1.2-7.3,1.2-11.4c1.7-2.9,1.2-17.1-6-20.5c-2-0.9-4.5-1.3-5.6-3.1c-1.3-2,0.1-2.8,0.5-5.1c1.6-9.5-9.4-10.2-11.2-11.4
			c-1.4-0.9-2.1-2.6-3.4-3.8c-5.5-4.9-14.7,1.9-16.7-9.1c-0.9-4.6-4.2-8.7-8.7-10.4c-4.5-1.8-10-1-13.7,2c-6,4.9-3.5-1.4-9.5,3.5
			c-4.5,3.7-2.1-4.8-10.7-6c-13.3-2-11.2,11.7-24.5,5.6c-9.2-4.2-2.7,2.8-11.1,1.2c-5.1-1-9.5,4.1-13.6,10c-3.6,5.1-1,8.9-9,10
			c-4.6,0.7-9.8,1.2-14.6,5.6c-9.5,8.6,4.8,9.7-10.8,16.2c-7.5,3.1-6.5,10.9-1.8,14.6c2.8,2.1,2.3,6.2-5.2,10.5
			c-8,4.6-4.5,14.9,3.3,18.5c-3.6,0.1-7,2.3-8.3,5.5c-5,12.1,12.9,11.4,1.4,20.6c-9.4,7.5,4.4,12.7-2.8,19.3
			c-11.2,10.3,11.7,25.8-4.3,27.1c2.1,4.4,7.3,6,10.8,3.8c-2.4,8.6,7,20.8,19.8,13.3c-6.5,0.2-5.7-6.9-2.7-8.3
			c5-2.3,5.1,3.9,11.9,0.6c6.3-3,3.7-6.7,4.7-9.5c1.4-4.1,15.3-6.5,10.5-18.4c-4.3-10.7,16.5-1,7-23.5c-5-11.8,18-7.4,15.6-22.1
			c-1.8-11-8.8-13.1-4.1-17.6c4.3-4,4.6-6.4,5.7-11.1c2.1-9.3,8.5,4.4,20.4,0.2c4.3-1.5,12.9-5.6,13-10c4,10.6,8.4,1.8,13.6,6
			c3,2.5,0.8,6.2,3,9.3c1,1.4,3,1.8,4.3,3c3,2.6-1.2,5.8-0.2,11.8c1.6,9.4,11.1,8,11.9,14.1c0.8,5.6-3.8,10.5-2.2,15.9
			c1.1,3.7,5.6,6.6,4.5,10.3c-1.3,4.2-15.7,7.7-2.1,18.9c11.3,9.3-3,21.6-6.2,14.1c-3,11,9.9,17.2,18.7,7.2c1.5-1.7,2.7-3.5,6.7-1.7
			c2.8,1.3,7.4,6.2,15.9-1.5c5.7-5.1,4.5-12.6,0.9-19.5c4.3,2.8,11.2,0.5,12.7-4.3C579.6,158.8,575.2,153.3,570,153.4z"/>
		<path class="st12" d="M476.9,276.8c-0.2,0-0.2,0.3,0,0.3C477.1,277.1,477.1,276.8,476.9,276.8z"/>
		<path class="st9" d="M508.9,201.7c0-1.5,0.3-3.1-0.5-4.2c-0.4-0.6-1.7-0.7-1.8,0.2c0,0.3-0.2,1.3-0.2,1.5
			c1.3,10.2-8.7,19.7-18.3,20.9c-11.9,1.5-28-9.2-24.8-23c0.1-0.6-0.7-1-1-0.4c-6.3,14.5,9.7,27.6,23.6,26.9
			C496.6,223.2,509,212.9,508.9,201.7z"/>
	</g>
	<path class="st0" d="M593.4,297.9c0,0-35.4,32.3-45.7,32.3c-11.4,0-9.1-0.4-9.1-0.4s1-13,3.3-29.1c0,0,2.4,3.6,4.8,1.8
		c9.7-7.5,32-32.9,32-32.9L593.4,297.9z"/>
	<g>
		<path class="st13" d="M606.5,816.8c0.1,2-0.6,5.6-0.6,5.6c-1.4,3.4,0.7,5.8-4,14c-1.8,3.2-12.9,3.3-14.3-1.8
			c-0.3-1,10.8-15.8,12-17.5C599.6,817.1,601,816.9,606.5,816.8z"/>
		<path class="st13" d="M695.3,828.6c10.4,2.1,22,2.6,32.6,2.1c5.8-0.3,1.9-3.2,0.5-3.7c-8.4-2.7-14.9-4.8-20.7-6.9
			c-8.3-3.2-5.2-6-10.6-4.7c0,0,0-0.1,0-0.1c-0.2-0.7-1.1-0.6-1.2,0.1c-0.5,3.4-0.6,8.3-1.3,11.7
			C694.4,827.7,694.6,828.5,695.3,828.6z"/>
		<path class="st14" d="M652.6,455.1c-1-14.5-7.2-15.5-20-18.6c-9.1-2.2-17.9-5.6-26.2-10c-5.2-2.8-11.2-8.6-17.2-9.2
			c-4.8-0.5-7.8,1.8-9.6,5.2c-0.5,0-0.8,0.3-1,0.8c-15.8,54.5-7.6,133.6-2.9,195.5c2.5,33,5.6,65.9,7.9,98.9
			c1.2,17.1,14,96.6,14.9,98.6c1.4,3.1,7.6,1.8,8.1,0.3c4.1-13.4,24.7-101.7,28.4-134.4c3.8-33.3-3.8-46.5,0.3-79.7
			c3.9-31.5,11-62.1,15-93.7C652.6,491,653.8,473,652.6,455.1z"/>
		<path class="st14" d="M650.9,508.8c4,31.5,11.1,62.2,15,93.7c4.1,33.2-5.5,44.5-1.7,77.7c3.7,32.7,26.3,123,30.4,136.4
			c0.4,1.5,6.7,2.8,8.1-0.3c0.8-1.9,13.6-81.5,14.9-98.6c2.4-33,5.4-65.9,7.9-98.9c4.7-61.9,13-141-2.9-195.5
			c-0.2-0.5-0.5-0.8-1-0.8c-1.8-3.4-4.7-5.7-9.6-5.2c-6,0.6-12,6.4-17.2,9.2c-8.3,4.4-17.1,7.7-26.2,10c-12.8,3.1-19.1,4.1-20,18.6
			C647.4,473,648.6,491,650.9,508.8z"/>
		<path class="st15" d="M646.4,494.7c-0.5,0-0.5,0.7,0,0.7C646.9,495.4,646.9,494.7,646.4,494.7z"/>
		<g>
			<path class="st16" d="M663.6,503.5c-8.8-1.6-19.9,0.9-27.9,4.6c-0.6,0.3-0.1,1.1,0.4,1.1c4.7-0.6,9.4-1.5,14.2-1.9
				c4.2-0.3,8.5,0.2,12.7-0.2C665,506.9,665.8,503.9,663.6,503.5z"/>
			<path class="st16" d="M655.5,496.4c-5.1,0.2-10.1,1.5-15,2.9c-1,0.3-0.6,1.7,0.4,1.5c4.8-1.1,9.7-1.2,14.6-1.6
				C657.2,499.1,657.2,496.4,655.5,496.4z"/>
			<path class="st16" d="M653.6,451.6c-0.3-0.8-1.3-0.8-1.6,0c-2.2,6.4-1.1,14.7-1,21.6c-1,0.1-2,0.3-3,0.5c0.9-7.4-0.4-15.5-1-22.9
				c-0.1-0.6-1-0.7-1,0c-0.1,7.7-1.6,15.9-0.7,23.5c0,0,0,0,0,0c-2.2,0.6-4.3,1.3-6.5,2c-0.7,0.2-0.4,1.2,0.3,1.1
				c4.6-1.1,8.9-0.9,13.6-0.9c1,0,1.7-0.8,1.8-1.8C654.7,467.6,656.2,458.5,653.6,451.6z"/>
			<path class="st16" d="M605.2,447.8c-2.3,4.3-4.9,8.2-8.3,11.8c-1.8,1.8-3.6,3.6-5.8,4.9c-2.1,1.2-11.2,4.8-11.8-0.9
				c11.2-0.8,20.2-8.6,22.8-19.7c0.1-0.6-0.8-0.9-1-0.3c-3.2,10.1-12.6,17-23.2,17.3c-0.8,0-1.3,0.6-1.4,1.4
				c-0.8,7.6,8.4,8,13.6,5.8c7.6-3.3,14.6-11.6,17.4-19.3C607.9,447.4,605.8,446.6,605.2,447.8z"/>
			<path class="st16" d="M726,452.7c-0.2-0.5-0.8-0.8-1.3-0.8c-8.6,0.6-17.3-4.8-19.2-13.6c-0.1-0.6-1-0.3-0.9,0.2
				c1.1,8,5.3,14.3,13.7,16.1c0.7,0.2,1.4,0.3,2.1,0.3c2.1,0.2,2.7-0.7,2.1,1.8c-1.2,5.4-9.6,0.1-12.3-2c-4.4-3.5-8.4-7.4-11.3-12.3
				c-0.6-1-2.5-0.3-2,0.8c3.1,7.4,10.9,15.5,18.6,18.1C721.6,463.7,729.1,459.7,726,452.7z"/>
		</g>
		<path class="st17" d="M727.8,95.8C723.9,89,717,87.6,710.7,84c-8-4.5-11.4-13.9-21-15.4c-22.5-3.5-28.5,4.5-31.6,6.1
			c-0.2-3.5-1.8-6.9-4-9.4c-0.4-0.4-1.1,0.1-0.8,0.6c1.4,2.5,1.7,4.9,1.5,7.3c-1.8-2.5-4.5-4.4-7.4-4.4c-0.3,0-0.5,0.4-0.3,0.7
			c1,1,2,2,2.9,3.1c-22.2-8-50.7,31.2-53.8,49.2c-6,34,1.6,48.5,20.6,64.2c12.5,10.4,8.4,17.7,29.4,17.7c21.5,0-5.6-0.8,38.5-0.2
			c6.3,0.1,11.8,0.5,17.1-4.4c5.1-4.7,8-7.6,8.6-12.1c3.3-7.2,4.2-6.8,8.9-11.8c6.7-2.9,11.1-8.1,13-21.7
			C734.7,134.9,737.5,112.9,727.8,95.8z"/>
		<path class="st18" d="M623.3,234.1c-2.7-3.3,15.7-6,11.7-9.3c-32.7,0-65.9,37.1-79.3,51.2c-1.2,15.3,11.1,37.9,22,41.2
			c4.9,1.5,26.9-16.2,35.5-25.2c3-3.1,1.6-6.4,4.1-10.4c5.3-5,9.5-10.9,11.3-18.5C630.7,253.7,629.4,241.8,623.3,234.1z"/>
		<path class="st18" d="M712.8,374c-16.4-39.5,1.2-45.2,3-78.2c1.4-26.9-7.4-59.3-8.4-61.5c-0.8-1.8-7.6-8.9-38.3-10.8
			c-21.9-1.3-43,1.4-49.5,5.6c-8.7,5.6-17.5,42.1-17.6,55.2c-0.3,40.3,16.7,38.1-10.6,82.3c-9.4,15.2-13.3,34.8-16.8,66.4
			c39.2,28,139,18.7,151.6-4.1C726.2,419.3,723.2,399,712.8,374z"/>
		<path class="st0" d="M676.1,211.1c-0.1-1.8,0.7-9.5,0.7-9.5c-0.2-6.1-27-5.1-29.7-2.5c-0.2-0.5-0.6-0.5-0.6,1
			c-0.5,2,0.9,10.7-1.2,17.3c-2.2,7-5.1,5.3-5.8,8.5c-2.3,10,6.1,22.7,22.6,22.7c11.6,0,20.7-12.4,20.7-21.8
			C682.8,223.1,676.7,225.6,676.1,211.1z"/>
		<path class="st19" d="M714.1,144.9c-4.3-1.3-7.3,2.2-9.6,5.3c-0.4,0.6-0.2,1.2,0.2,1.5c-0.7,1.1-1.1,2.4-1.5,3.5
			c-2,6.8-2.5,14.5-3.3,21.6c-0.1,1,0.8,2.1,1.7,2.3c10.5,2.4,17.9-14.8,18.6-23.3C720.6,151.4,718.7,146.3,714.1,144.9z"/>
		<path class="st19" d="M608.1,154.6c0.7,9,8.1,27.1,18.6,24.5c0.9-0.2,1.8-1.4,1.7-2.4c-0.7-7.5-1.2-15.5-3.3-22.7
			c-0.3-1.2-0.8-2.5-1.5-3.7c0.4-0.3,0.7-0.9,0.2-1.6c-2.3-3.3-5.3-6.9-9.6-5.6C609.6,144.5,607.8,149.9,608.1,154.6z"/>
		<path class="st20" d="M706.4,133.7c-0.2-5.3-1.8-10.8-3.1-15.6c-1.4-4.9-3.3-10.6-6.8-14.6c-6.5-11.2-19.7-18-33.3-18.8
			c-14.2-0.8-29.8,7.9-34.2,21.7c-6.5,12.4-6.4,28.9-6.3,42.1c0.1,17.7,1.7,36.4,13.9,50.2c9.6,10.8,24.7,15,38.2,9.7
			c4.6-1.8,8.5-4.5,11.9-7.8c9.3-5.7,15-20.4,17.3-29.7C706.7,159.3,708,146.2,706.4,133.7z"/>
		<path class="st17" d="M701.5,94.5c-18.3-12.7-41.2-20.7-60.4-6.6c-9.2,6.7-18.3,17.4-22.7,28.1c-3,7.2-5.6,22.9,1.4,29.7
			c8.6,8.4,9.1-6.3,10.3-11.2c1.9-7.8,1.4-26.3,22.3-32.5c-5.7,12.1,3,26.6,17.8,25.7c5.8-0.4,12.5-2.9,18.6-2.6
			c12.8,0.6,7.7,9.8,12.1,16.6c8,12.4,0.7,25,2.1,24.4C726.1,155.9,726.4,111.8,701.5,94.5z"/>
		<path class="st9" d="M604.9,312.4c-4.3-17.7,1.2-34,4.1-51.5c0.1-0.6-0.8-0.7-1-0.2c-4.9,12.1-8.8,27.1-8.1,40.2
			c0.9,15.4,10.7,24.6,2.5,45.1c-0.3,0.7-0.6,1.6-0.2,1.1C611.2,337,607.8,324.3,604.9,312.4z"/>
		<path class="st18" d="M760.7,289.1c-0.6-2-27.4-44.8-60.6-59.9c-0.5-0.2-0.9,13.9-0.9,17.3c0.1,10.8,4.9,20.1,7.4,30.4
			c1.8,7.4-2.9,16.6,3,22.4c0.2,0.2,0.4,0.3,0.5,0.3c6.3,9.5,14.3,15.8,22.4,23.7c0.5,0.5,1.3,0.4,1.9,0
			C748,313.4,763.1,297.6,760.7,289.1z"/>
		<path class="st9" d="M704.8,268c-0.2-0.6-1.3-0.3-1.1,0.3c2.3,9.2,6.2,18.6,7.4,28c1.5,11.7-3.1,22.1-6.1,33.1
			c-3.3,12.2-2.8,31.5,6.1,40.4l0,0c-7.6-19-2.7-37.1,1.9-55.4C717.2,297.6,711.3,283.3,704.8,268z"/>
		<path class="st9" d="M682.2,226c-2.6,13-8.9,22.5-23.6,21.8c-5.5-0.3-13-3-15.7-8.1c-2.2-4.2-2.2-10.4-2.9-15.2
			c-0.1-0.4-0.7-0.4-0.8-0.1c-5.6,12.8,3.2,24.8,16.6,26.7c16.7,2.3,27.3-9.3,29.4-24.7C685.4,224.7,682.6,224.3,682.2,226z"/>
		<g>
			<path class="st1" d="M685.1,229.3l3.2-7.1c0.6-1.4,2.2-2,3.6-1.4l0.6,0.3c1.4,0.6,2,2.2,1.3,3.6l-3.2,7.1
				C687.4,236.5,683.4,234.5,685.1,229.3z"/>
			<path class="st1" d="M704.2,234.2l1.1-6.2c0.2-1.2,1.5-2,2.9-1.7l0.7,0.1c1.4,0.2,2.3,1.4,2.1,2.6l-1.1,6.2
				C708.1,239.6,704,238.6,704.2,234.2z"/>
			<path class="st1" d="M697.4,233.1l1.8-7.4c0.4-1.4,1.8-2.3,3.3-2l0.7,0.2c1.4,0.4,2.3,1.8,2,3.3l-1.8,7.4
				C700.9,239.7,696.7,238.4,697.4,233.1z"/>
			<path class="st1" d="M691.9,232.2l3.1-9c0.6-1.7,2.3-2.7,3.7-2.2l0.7,0.2c1.5,0.5,2.1,2.3,1.5,4.1l-3.1,9
				C694.5,240.4,690.3,238.6,691.9,232.2z"/>
		</g>
	</g>
	<path class="st21" d="M249.4,417.1c45.4-22.6,35.7-31.9,33.5-46.5c-34.6,21.1-33.6,17.7-36.3,15.3c-5.8-5.2-10.1-12-12.3-19.5
		c-6.9,1.7-16.7,8.4-22,10.9C201.4,382.5,237.8,422.9,249.4,417.1z"/>
	<path class="st2" d="M217.1,288.8c0,0-16.5,39.8-32.8,27.2c-12.5-9.6,1.8,34.7,26.4,27.1c12.2-3.8,33-34.8,33-34.8L217.1,288.8z"/>
	<g>
		<path class="st22" d="M265.1,832.8c-0.6-3.8-0.5-5.6-0.9-9.4c-0.1-0.8-6.2-1-7.7-0.4c-2.2,0.9-4.5,2.9-9.9,4.7
			c-6.4,2.2-10.1,2.4-19.5,5.1c-1.5,0.4-5.9,1.6,0.4,2.1c11.6,1.1,24.3,1,35.8-0.9C264,833.9,265.2,833.4,265.1,832.8z"/>
		<path class="st22" d="M359.7,832.8c11.6,1.6,26.3,1.4,37.8,0c6.3-0.8,1.8-1.8,0.3-2.2c-9.4-2.4-13.1-2.5-19.6-4.6
			c-5.5-1.7-7.8-3.6-10-4.5c-1.5-0.6-7.6-0.2-7.7,0.6C360.2,826,359.7,832.8,359.7,832.8z"/>
		<path class="st23" d="M309,456.7c-1.1-14.5-7.3-15.4-19.8-18.4c-8.9-2.1-17.5-5.4-25.7-9.6c-5.2-2.7-11-8.4-16.9-9
			c-4.7-0.4-7.6,1.9-9.3,5.4c-0.5,0-0.9,0.3-1,0.8c-0.2,1.1-0.3,2.3-0.5,3.4c-0.3,1.4-0.5,2.9-0.6,4.4
			c-7.9,61.9-2.7,125.9,2.7,187.8c2.9,33,6.3,65.9,9,98.8c1.4,17.1,2.7,34.2,3.6,51.4c0.8,13.9,3.7,50,4.8,51.8
			c1.6,2.7,8.5,2.6,8.9,1.1c3.8-13.4,21.4-87.1,24.6-119.8c3.3-33.3-0.6-67,3-100.3c3.4-31.6,11.9-62.4,15.5-94
			C309.5,492.7,310.4,474.6,309,456.7z"/>
		<path class="st23" d="M309,511.4c4.5,31.5,13.9,62,18.2,93.5c4.6,33.2,1.7,66.9,6,100.1c4.2,32.7,21.9,110.5,27,117.9
			c1.1,1.6,6.4,1,7.7-0.6c2.2-2.8,6.7-85.9,7.7-103c1.8-33,4.2-66,6.1-99.1c3.6-62,6.9-126.1-2.8-187.8c-0.1-1.5-0.4-2.9-0.7-4.3
			c-0.2-1.1-0.4-2.3-0.6-3.4c-0.1-0.6-0.5-0.8-1-0.8c-1.8-3.4-4.7-5.7-9.5-5.1c-5.9,0.7-11.6,6.6-16.7,9.5c-8,4.5-16.6,8-25.4,10.4
			c-12.5,3.3-18.6,4.4-19.3,19C305,475.6,306.4,493.6,309,511.4z"/>
		<g>
			<path class="st24" d="M303,451.2c-0.2-1-1.5-0.6-1.6,0.2c-0.4,8.7,0.5,17.8,1.3,26.5c0.2,2.2,3.4,2.2,3.3,0
				C305.3,469.1,304.8,459.9,303,451.2z"/>
			<g>
				<path class="st24" d="M332.2,503.2c-11.2-2.2-24.2-0.2-34.7,4.1c-1.1,0.5-0.7,2.2,0.5,1.9c11.5-2.7,22.1-3.2,33.9-3.3
					C333.3,505.9,333.7,503.5,332.2,503.2z"/>
				<path class="st24" d="M327.5,498.4c-8.9,0-20.3-0.1-28.4,4c-0.2,0.1-0.1,0.4,0.1,0.4c4.7,0.3,9.5-0.9,14.1-1.3
					c4.7-0.4,9.5-0.6,14.3-0.6C329.1,501,329.1,498.4,327.5,498.4z"/>
				<path class="st24" d="M326.2,476.2c-4,0.4-8,1-12,1.6c1.1-8.9-0.8-19.9-2.4-28.7c-0.2-0.9-1.5-0.6-1.5,0.2
					c-0.3,8.9-0.7,20.2,1.7,28.8c0,0,0,0,0,0c-4.1,0.7-8.1,1.5-12.1,2.4c-0.9,0.2-0.7,1.7,0.2,1.6c8.7-1.1,17.3-2.2,26-3.2
					C328,478.9,328,476,326.2,476.2z"/>
				<path class="st24" d="M377.1,457.8c-5.4-0.6-10.7,0.2-16.1-1.3c-2.1-0.6-12.4-4.5-11.7-8.1c0.2-1-1-1.5-1.5-0.6
					c-2.2,3.5,5.3,8.7,7.6,9.9c6.5,3.5,15,4.2,22.1,3.1C379.3,460.5,378.6,457.9,377.1,457.8z"/>
				<path class="st24" d="M258.6,445.7c-5.3,8-10.2,15.1-19.8,17.3c-0.9,0.2-0.7,1.7,0.2,1.7c10.1,0,17.8-8.9,22.5-17.2
					C262.6,445.4,259.8,443.9,258.6,445.7z"/>
			</g>
		</g>
		<path class="st8" d="M284.4,227.3c-38.2,1.8-59.5,48.9-69.3,65.3c-7.7,13.3,15.1,31.8,26.2,32.9c5,0.5,26.1-24.8,32.4-35.3
			c2.2-3.6,0,0,1.6-4.4c4-6,6.8-12.5,6.9-20.3C282.3,256,289,229.7,284.4,227.3z"/>
		<path class="st8" d="M342.4,265.5c0.1,7.8,2.9,14.4,6.9,20.3c1.6,4.4,0,4,2.2,7.7c6.4,10.5,29,33.4,33.8,32
			c13.7-4,27.2-19.6,24.2-32.9c-9.9-16.5-37.6-55.4-56.9-62.5C348.1,232.6,342.3,256,342.4,265.5z"/>
		<path class="st8" d="M361,374.9c-16.6-39.3,6.5-45.4,7.8-78.3c1.1-26.9-8-59.2-9-61.5c-0.8-1.8-7.6-8.8-37.6-10.3
			c-21.4-1.1-42,2-48.3,6.2c-8.5,5.7-16.6,42.3-16.6,55.4c0.2,40.3,22.7,37.9-3.4,82.5c-9,15.3-24.6,45.2-19.5,66.7
			c38.7,27.5,134.2,16.9,146.2-6C380.5,420,371.4,399.8,361,374.9z"/>
		<path class="st9" d="M263.9,311.9c-5.6-17.3-1.5-34.1-0.1-51.7c0.1-0.6-0.8-0.7-1-0.1c-3.9,12.4-6.4,27.7-4.7,40.7
			c2.1,15.3,10.3,23.7,6.6,44.5c-0.1,0.7-1.2,2.9-0.8,2.4C271.9,336.8,267.7,323.5,263.9,311.9z"/>
		<path class="st9" d="M365.8,267.4c-0.2-0.6-1.2-0.5-1.1,0.2c1,9.5,3.5,19.2,3.4,28.8c-0.1,11.8-6,21.5-10.3,32
			c-4.8,11.6-6.5,30.9,0.9,41l0,0c-7.7-19.3,1.9-37.3,8.8-54.8C373.9,298.5,370.1,283.5,365.8,267.4z"/>
		<path class="st25" d="M374.5,133.1c-0.6,5,7.7,14.9,6.5,25.3c-2,16.7-11.1,17.9-14.5,22.1c-5.4,6.8-1.3,15.6,3.1,15.4
			c4.2-0.2,6-3.4,6.1-5.6c5,8.3-0.6,18.8-7.3,19.8c-8.1,1.2-11.5-2.7-11.5-2.7c0.3,2.5-0.6,15.7-15.4,14.2c4-1.4,6.4-10.2-0.6-13.5
			c1.8,3.7,4.7,10.7-8,15c-12-3-18.1-11-18.1-11l-11.9-1.5c0,0-2.4,1-1.3,4.8c1.1,3.7-10.3,6.1-11.4-6.4c-4.9,3.8-3.5,8.1-2.4,9.5
			c-2.9,1.8-14.5,1.2-13.1-18.1c-2.1,1.2-6.9,8-2.3,11.4c-2.2,3.2-13,4.5-13.4-8.5c-2.1,5.7-16.1,8.7-19.3-4.5
			c3.9,1.2,13.2-0.3,10.3-9.9c-2.9-9.5,1-19,1-19l20.5-60.8L290,98.8l53.1,10.6L374.5,133.1z"/>
		<path class="st26" d="M350.5,144.7c23-7.7,15.2,28.3-1.9,30.5C347.9,175.3,349.3,145.1,350.5,144.7z"/>
		<path class="st26" d="M268.5,144.7c-23-7.7-15.2,28.3,1.9,30.5C271.1,175.3,269.6,145.1,268.5,144.7z"/>
		<path class="st26" d="M292.4,225.9c-2.2,25.1,37.2,29.2,38.9-0.3c-5.7-4.3-5.7-18.9-5.8-25.2c-8.9,0.3-18.3-0.8-27.1,0.3
			c-4,0.5-1.5,0.8-1.6,4.4C296.6,209.6,299.3,222.7,292.4,225.9z"/>
		<path class="st2" d="M268.9,167.6c6.7,46,48.9,44.5,64.5,33.5c7-4.9,13.3-15.5,15.1-23.8c3-13.4,4.2-33.7,1.7-48
			c-1.3-7.8-7.7-17-13.3-22.6c-9.2-9.2-36.3-19.7-50.1-7.9C269.8,113.4,265.8,146.5,268.9,167.6z"/>
		<g>
			<path class="st27" d="M248.3,608.9c0.6-0.1,1.3,0,1.9,0.1c4.8,1,9.9,1.4,14.8,0.6c2-0.3,3.9-0.9,5.8-1.5c1.9-0.6,4.2-1.3,5.8-0.2
				c0.6,0.4,1,1,0.8,1.6c-0.1,0.3-0.3,0.6-0.5,0.9c-3.2,4.1-8.4,6.8-13.9,7.6c-5.5,0.8-11.2-0.1-16-2.3c-1-0.5-2.1-1-2.7-1.8
				c-0.9-1.1-0.7-2.1,0.3-2.9C245.2,610.4,247.3,609.1,248.3,608.9z"/>
			<path class="st28" d="M258.2,611.9c4.5,0.4,9.4,0.3,13.2-2c0.7-0.4,1.5-1,2.3-1c0.9,0,1.9,0.7,1.6,1.5c-0.1,0.3-0.4,0.6-0.7,0.8
				c-1.5,1.1-3.1,2.2-4.8,3.2c-1.1,0.7-2.2,1.3-3.5,1.6c-1.3,0.4-2.7,0.5-4,0.5c-5,0.1-10.1-0.3-14.6-2.5c-0.5-0.3-1.1-0.6-1.3-1.1
				c-0.4-0.9,0.3-2,1.1-2.4c1.1-0.6,2-0.1,3.3,0.2C253.1,611.3,255.6,611.7,258.2,611.9z"/>
			<g>
				<path class="st27" d="M276.4,609c0.1-0.1,0-0.2-0.2-0.2c-0.2,0.1-0.4,0.2-0.6,0.4c0.1-0.1,0-0.2,0-0.2c0,0,0,0,0,0
					c0.1,0,0.2-0.1,0.1-0.2c-1.3-3.6-7.2,0.5-9.6-0.3c-0.4-0.1-0.9,0-1.1,0.3c-0.3,0.1-0.7,0.3-1,0.4c-0.2-0.1-0.6,0-0.7,0.2
					c-0.8,0.8-8.3,0-9-0.6c-0.3-0.2-0.7-0.2-0.9,0.1c-0.4,0.3-5.2-0.1-5.6-0.3c-0.3-0.1-0.8,0-1,0.3l-0.7,1.3
					c-0.1,0.1-0.1,0.2,0,0.3c-0.3,0.2-0.3,0.6,0.1,0.6c5.2,0.8,10,2.9,15.4,2.6c4-0.3,8.1-1.5,11.7-3.3c-3.5,1.8-7.1,3.4-11.2,3.6
					c-5,0.2-11-0.6-15.4-2.4c-0.5-0.2-1,0.5-0.4,0.7C255.5,616.3,268.6,616,276.4,609z M266.2,611.9c0.3,0,0.6,0,1.1-0.1
					c0.1,0,0.1,0,0.2,0c-2.2,0.7-4.4,1.1-6.9,1.2c-3.8,0.1-7.1-1-10.6-1.8c1.5,0.1,3,0.3,4.5,0.4c1.9,0.1,3.6,0.8,5.4,1
					c-0.2,0,3.3,0.2,2.7-0.2c0.3,0.1,0.6,0.1,0.8-0.1c0.3,0,0.6,0,0.8,0.1c0.3,0.1,0.5,0,0.7-0.2
					C265.5,612.2,265.9,612.1,266.2,611.9z M270.4,609.2c-0.4,0.2-0.8,0.4-1.3,0.6c-0.6,0.1-1.3,0.3-1.9,0.5c-0.3,0-0.6,0-0.9,0.1
					c-0.2,0-0.4-0.1-0.5-0.2c0,0-0.1,0-0.1,0c0.3-0.1,0.5-0.1,0.6-0.1C266.6,610,268.5,609.5,270.4,609.2z"/>
				<path class="st27" d="M245.9,612.6c10.5,3.5,21.2,3.9,30.4-3.2c0.2-0.2,0.5,0.1,0.3,0.2c-7.7,8.4-21.2,6.8-31.1,3.7
					C244.9,613.2,245.3,612.4,245.9,612.6z"/>
			</g>
			<path class="st27" d="M248.9,615.2c7.7,1.4,14,2.2,21.5-1.1c0.2-0.1,0.4,0.1,0.2,0.3c-6.2,4.2-15.1,3.5-21.9,1.3
				C248.4,615.6,248.6,615.2,248.9,615.2z"/>
		</g>
		<g>
			<path class="st27" d="M373.3,606.8c-0.1,0.2-0.5,0.3-0.9,0.5c0,0,0,0,0,0c-0.1,0-0.2,0-0.3,0.1c0.4-0.3,0.7-0.6,1-1.1
				c0.1-0.1,0-0.2,0-0.3c0.1,0,0.2-0.1,0.3-0.1c0.6-0.2,0.3-1.2-0.3-1c-6.7,2.4-13.7,2.8-20.7,3.4c-0.3,0-0.3,0.5,0,0.5
				c6.6,0,13.1-0.5,19.5-2.4c-2.4,1.7-6.6,1.5-9.3,2c-3.6,0.6-7,1.5-10.5,2.5c-0.1,0-0.2,0.1-0.2,0.2c-0.6,0.1-1.2,0.2-1.8,0.3
				c-0.3,0.1-0.3,0.7,0.1,0.6c2.1-0.2,4.3-0.5,6.5-0.8c0.9,0.1,1.8,0.1,2.7,0.2c-2.6,0.2-5.2,0.6-7.8,0.9c-0.2,0-0.2,0.4,0,0.4
				c4.4-0.1,8.8-0.3,13.1-0.9c3.5-0.5,6.1-1.9,9.2-3.6c0.3-0.1,0.2-0.4,0.1-0.6c0.1-0.1,0.2-0.2,0.3-0.3
				C374.4,606.8,373.6,606.3,373.3,606.8z"/>
			<path class="st27" d="M372.1,604c-4.9,0.5-9.7,1.3-14.5,2.2c4.8-0.9,9.3-2.8,14.2-3.1c0.3,0,0.3-0.5,0-0.5
				c-6.7,0.2-12.8,3.3-19.5,3.5c-0.3,0-0.3,0.5,0,0.5c1.6,0.1,3.2-0.1,4.8-0.3c-1.3,0.2-2.5,0.5-3.8,0.7c-0.3,0.1-0.3,0.7,0.1,0.6
				c6.3-0.8,12.6-1.3,18.8-2.6C372.8,604.9,372.7,604,372.1,604z"/>
			<path class="st27" d="M371.5,601.6c-6-0.2-12.3,1.4-18.1,2.8c-0.4,0.1-0.2,0.7,0.2,0.6c6-1.2,12.1-1.6,18-2.8
				C371.9,602.2,371.8,601.6,371.5,601.6z"/>
		</g>
		<g>
			<path class="st27" d="M272.5,606.8c-0.2,0.2-0.5,0.3-1,0.4c0,0,0,0,0,0c-0.1,0-0.2,0-0.3,0c0.4-0.2,0.8-0.5,1.2-1
				c0.1-0.1,0.1-0.2,0.1-0.3c0.1,0,0.2,0,0.3,0c0.6-0.1,0.5-1.1-0.1-1c-7,1.3-13.9,0.6-21,0.1c-0.3,0-0.4,0.4-0.1,0.5
				c6.5,1,13.1,1.6,19.6,0.6c-2.6,1.3-6.7,0.5-9.5,0.5c-3.6,0.1-7.2,0.4-10.8,0.8c-0.1,0-0.2,0.1-0.2,0.2c-0.6,0-1.2,0-1.8,0
				c-0.3,0-0.4,0.6,0,0.6c2.2,0.1,4.3,0.2,6.5,0.3c0.9,0.2,1.7,0.4,2.6,0.6c-2.6-0.2-5.2-0.3-7.9-0.3c-0.2,0-0.2,0.3,0,0.4
				c4.3,0.6,8.7,1.1,13.1,1.1c3.5,0,6.4-1,9.7-2.1c0.3-0.1,0.3-0.4,0.2-0.6c0.1-0.1,0.2-0.2,0.3-0.2
				C273.6,606.9,272.9,606.4,272.5,606.8z"/>
			<path class="st27" d="M271.8,603.9c-4.9-0.3-9.8-0.2-14.7-0.1c4.8-0.1,9.6-1.4,14.5-0.9c0.3,0,0.4-0.5,0.1-0.5
				c-6.6-0.9-13.2,1.3-19.8,0.4c-0.3,0-0.4,0.5-0.1,0.5c1.6,0.3,3.2,0.4,4.8,0.4c-1.3,0-2.6,0.1-3.9,0.1c-0.3,0-0.4,0.6,0,0.6
				c6.3,0.2,12.7,0.7,19,0.4C272.4,604.9,272.4,603.9,271.8,603.9z"/>
			<path class="st27" d="M271.5,601.4c-5.9-1.1-12.4-0.6-18.3,0c-0.4,0-0.3,0.7,0.1,0.7c6.1-0.3,12.2,0.3,18.3,0
				C271.9,602,271.8,601.5,271.5,601.4z"/>
		</g>
		<g>
			<path class="st27" d="M377.2,574.8c-0.2,0.1-0.7,0.2-1.4,0.4c0,0,0,0,0,0c-0.2,0-0.3,0-0.5,0c0.6-0.2,1.1-0.5,1.6-0.8
				c0.1-0.1,0.1-0.2,0-0.2c0.1,0,0.3,0,0.4-0.1c0.9-0.2,0.5-0.9-0.4-0.7c-10.2,1.7-20.8,2-31.5,2.4c-0.5,0-0.5,0.4,0,0.4
				c10,0,20-0.3,29.6-1.7c-3.6,1.2-10,1.1-14.2,1.4c-5.4,0.4-10.7,1.1-16,1.8c-0.2,0-0.3,0.1-0.3,0.2c-0.9,0.1-1.8,0.2-2.8,0.2
				c-0.5,0-0.4,0.5,0.1,0.4c3.3-0.2,6.5-0.3,9.8-0.5c1.4,0,2.7,0.1,4.1,0.2c-4,0.2-7.9,0.4-11.9,0.7c-0.3,0-0.2,0.3,0.1,0.3
				c6.6-0.1,13.3-0.2,19.9-0.6c5.3-0.4,9.3-1.4,14-2.6c0.4-0.1,0.3-0.3,0.1-0.4c0.1-0.1,0.3-0.1,0.4-0.2
				C378.9,574.8,377.7,574.4,377.2,574.8z"/>
			<path class="st27" d="M351.3,573.9c0.2,0,0.4,0,0.6,0c-2.1,0.2-4.2,0.3-6.4,0.3c-0.5,0-0.5,0.3-0.1,0.4c-0.6,0-1.3,0.1-1.9,0.1
				c-0.3,0-0.2,0.3,0.1,0.3c1.1,0,2.2,0,3.2,0c-0.3,0.1-0.1,0.4,0.3,0.4c9.5-0.6,19.2-0.9,28.6-1.8c0.9-0.1,0.7-0.8-0.2-0.7
				c-0.9,0-1.8,0.1-2.7,0.1c1.5-0.4,3.1-0.7,4.7-1.2c0.4-0.1,0.3-0.3,0.1-0.4c0.1-0.1,0.3-0.1,0.4-0.2c0.5-0.3-0.7-0.7-1.2-0.3
				c-0.2,0.1-0.7,0.2-1.4,0.4c0,0,0,0,0,0c-0.2,0-0.3,0-0.5,0l0,0c0.6-0.2,1.1-0.5,1.6-0.8c0.1-0.1,0.1-0.2,0-0.2
				c0.1,0,0.3,0,0.4-0.1c0.9-0.2,0.5-0.9-0.4-0.7c-10.2,1.7-20.8,2-31.5,2.4c-0.5,0-0.5,0.4,0,0.4c4.3,0,8.5-0.1,12.7-0.3
				c-3.6,0.4-7.3,0.8-10.7,1.2c-0.3,0-0.4,0.1-0.3,0.2c-0.7,0.1-1.5,0.2-2.2,0.3c-0.2,0-0.3,0.1-0.3,0.2c-0.9,0.1-1.8,0.2-2.8,0.2
				c-0.5,0-0.4,0.5,0.1,0.4C344.7,574.3,348,574.1,351.3,573.9z M374.6,570.4c-0.8,0.3-1.7,0.5-2.8,0.6c-1.1,0-2.1,0-3.2,0.1
				C370.6,570.9,372.6,570.7,374.6,570.4z"/>
			<path class="st27" d="M345,570.7c2.5,0.1,4.9,0,7.3-0.2c-1.9,0.2-3.9,0.3-5.8,0.5c-0.5,0-0.4,0.5,0.1,0.4
				c9.5-0.6,19.2-0.9,28.6-1.8c0.9-0.1,0.7-0.8-0.2-0.7c-7.4,0.3-14.7,1-22.1,1.6c7.2-0.6,14.2-2,21.6-2.2c0.5,0,0.5-0.4,0-0.4
				c-10.2,0.1-19.4,2.4-29.6,2.5C344.5,570.3,344.5,570.7,345,570.7z"/>
			<path class="st27" d="M346.8,569.6c9.1-0.9,18.4-1.2,27.4-2.1c0.6-0.1,0.4-0.4-0.1-0.5c-9.1-0.2-18.8,1-27.5,2.1
				C345.9,569.2,346.1,569.7,346.8,569.6z"/>
		</g>
		<path class="st1" d="M258.9,233.7l2.7,11.6c0.1,1.1,1.7,3.3,3.3,3.2c1.8-0.1,2.6-2.6,2.5-3.7l-1.6-13.4
			C265.4,228,258,229.3,258.9,233.7z"/>
		<g>
			<path class="st1" d="M279.1,224.2l3.9,14.1c0.2,1.1,2.2,3.4,4.2,3.3c2.2-0.1,3-2.7,2.8-3.8l-2.6-13.8
				C286.3,219.5,277.7,220.8,279.1,224.2z"/>
			<path class="st1" d="M264,227.6l5.7,16.7c0.3,1.3,2.7,3.8,4.6,3.4c2.2-0.4,2.7-3.7,2.3-5l-4.4-16.4
				C270.2,220.9,263.4,223.5,264,227.6z"/>
			<path class="st1" d="M271.5,224.7l4.6,18.9c0.3,1.5,2.4,4.5,4.3,4.3c2.2-0.2,2.9-3.6,2.6-5.1l-3.3-18.3
				C278.2,218.7,270.2,220.4,271.5,224.7z"/>
		</g>
		<path class="st25" d="M358.6,81.7c-10.4-5.7-6.7,0.1-19.9-11.8c-3.6-3.3-13.5-6.3-16-6.5c-23.2-2.5-32.9,11.6-32.9,11.6
			c-7.6-4.9-14.4-6.6-26.1,1.3c-12.8,8.5-25.1,23.6-26.1,35c-1.1,12.4,9.2,12.4-1.9,27.3c-6,8-7.4,19.2-3.5,28.5
			c0.5-2.1,1.9-3.9,3.8-5c-6.9,13.1,2,34.9,17.9,26.6c1.9-1,3.5-2.7,3.8-4.8c-1.3,2.3-5.7,3.2-7,0.9c-2.4-4.1,4.6-6.4,5.1-15.6
			c0.3-4.4-0.8-11.6,11-14.3c10.4-2.4,7.5-13.6,8.7-18.2c0.9-3.4,3.4-6.1,5.2-9.1c4.5-7.5,5.9-13,5.8-21.4
			c15.5,23.8,38.4-1.1,52.7,21.7c4.7,7.5,3,18.4,11.2,22.7c8.3,4.3,1.1,15.3,14.4,17.3C381.2,170.3,385.7,96.4,358.6,81.7z"/>
		<path class="st9" d="M330.9,226.2c-2.1,9.9-8.4,19.7-19.8,19.8c-11.9,0.1-15.9-9.6-18.6-19.1c-0.1-0.5-0.8-0.5-1,0
			c-3.6,10.7,6.9,20.9,17.1,21.7c13,1,22.9-9.5,24.7-21.7C333.6,225.3,331.3,224.5,330.9,226.2z"/>
	</g>
	<g>
		<path class="st29" d="M222.3,490.7c2.6,43.5,0.9,103.7-2.3,147.1c-0.6,7.7-1.2,15.5-3.1,23c-2.5,9.6-7.1,18.5-12.1,27.1
			c-4.9,8.4-10.3,16.6-15.7,24.8c-10.7,16.3-33,50.4-33.8,50.9c-1.2,0.9-2.9,0.9-4.4,0.6c-8.1-1.8-12.2-5.3-12.6-7.4
			c-5.1-27.6,2-69.1,16.3-93.3c3.2-5.4,7.2-10.9,13.1-13.1c-0.6-12.6-2.5-25.2-5.6-37.5c-3-11.7-7-23.3-7.6-35.4
			c-1.4-27.7,15.5-54,13.5-81.7c-0.2-2.5,16.3-8.4,18.5-9.2c7-2.5,14.4-4,21.9-4.5C224.5,481.1,221.5,477.4,222.3,490.7z"/>
		<path class="st30" d="M186,540.8c-6.2,1-11.9,3.4-17.5,5.9c-0.5,0.2-0.1,0.9,0.4,0.7c3-1.3,6-2.2,9.1-3.1
			c-3.1,16.7-1.3,34.7,0.1,51.4c0.8,9,1.7,18,2.5,27.1c0.7,8.3,2.2,17.7,0.6,26c-1.7,8.4-6.5,16.2-10.1,23.8
			c-3.8,8.1-7.5,16.2-11.1,24.4c-6.9,15.8-13.4,31.9-19.4,48c-0.3,0.9,1.1,1.3,1.5,0.4c6.5-17.2,13.4-34.3,20.8-51.2
			c3.6-8.2,7.3-16.3,11.2-24.3c3.3-6.9,7.3-14,8.6-21.6c1.3-7.7,0-15.9-0.6-23.6c-0.7-9-1.7-18-2.5-27.1c-1.6-18-1.5-35.5-1.2-53.5
			c2.6-0.7,5.3-1.4,8-2.1C187.1,541.8,186.7,540.6,186,540.8z"/>
		<path class="st31" d="M135,799.2c-0.3,0.7-0.7,1.4-1.3,1.9c-1.5,1.2-3.9-0.1-4.6-1.9c-0.7-1.8-0.3-1.8,0.2-3.7
			c3.3-14.3,6.7-26.6,10-40.8c0.2-0.9,0.5-1.8,1.2-2.2c0.6-0.3,1.3-0.3,1.9-0.2c3.9,0.5,9.1,2.9,11.2,6.4c2.4,4-1.8,8.9-3.6,12.8
			C145,782,140,788.6,135,799.2z"/>
		<path class="st32" d="M165.7,750.8c-1.3,2.6-8.6,14.9-10.2,16c-3,2-22-5.9-23.4-8.5c-0.8-1.6-0.7-15.5,1.1-21
			C140.9,743.6,160.3,750.7,165.7,750.8z"/>
		<path class="st33" d="M83.7,552.5c5.9,37.9,18.2,73.8,16.1,89.8c-2.4,17.9-29.4,38.1,10.6,137.6c4.2,1.4,22.5,3.5,25.1,0.9
			c1.5-1.5,11-117.8,10.7-116.1c1.5-8.6,4.8-16.8,6.2-25.3c0.3-2,7.6-76.1,17.6-93.3c4.8-8.2,14.8-10.6,15.6-11.7
			c1.3-1.7,6.6-38.3,4.4-42.5c-5.1-9.6-28.7-8.3-35.2-8.1c-19.6,0.6-35.9-21.1-55.3-20.6C77,463.9,80.2,530.4,83.7,552.5z"/>
		<path class="st30" d="M194.2,533c-9.6,0.7-20,4.8-26.9,11.6c-0.3,0.3,0.1,0.9,0.5,0.7c8.7-5,16.8-8.4,26.7-10.1
			C195.7,535,195.4,532.9,194.2,533z"/>
		<path class="st30" d="M190.6,517.3c1.9-6.4,1.9-14,1.5-20.4c0-0.6-0.9-0.6-0.9,0c-0.2,7.2-1.9,14-2.9,21c-1.1,0.4-2.2,0.8-3.3,1.3
			c1-7.1,0.8-14.2,0.3-21.4c0-0.4-0.6-0.4-0.6,0c0.1,7.6-1,15-2.1,22.5c-2.3,1.1-4.5,2.3-6.6,3.5c-1.3,0.7-0.2,2.5,1.1,1.9
			c3.8-1.7,7.8-3.7,11.2-6.2c0.4,0.5,1.4,0.3,1.7-0.3c0.2-0.4,0.3-0.8,0.4-1.2c0.1-0.1,0.2-0.1,0.2-0.2
			C190.8,517.6,190.8,517.4,190.6,517.3z"/>
		<path class="st30" d="M136.5,501.3c-4.8,5.8-9.3,11.8-15,16.7c-2.8,2.4-5.8,4.6-9.1,6.2c-1.5,0.7-4,2.5-5.7,2.3
			c-1.5,0.9-2.1,0.5-1.5-1.3c0-0.6,0-1.2,0-1.9c11-3.1,21.7-11.2,25.3-22.3c0.1-0.4-0.4-0.6-0.6-0.3c-6.6,9.8-14.3,17.1-26,20.2
			c-0.1,0-0.1,0.1-0.2,0.1c0,0,0,0,0,0c-0.5,0.3-0.7,0.8-0.6,1.2c-0.3,2-0.9,5.6,1.1,6.7c2.7,1.5,9.4-2.8,11.5-4.1
			c9.1-5.5,15.7-14.4,21.5-23.2C137.3,501.4,136.7,500.9,136.5,501.3z"/>
		<path class="st30" d="M222.4,500.7c0-0.2,0-0.4-0.1-0.6c-0.9-1.6-2.6-2.9-3.7-4.5c-1.1-1.6-2-3.3-2.9-5c-0.3-0.6-1.4-0.2-1.2,0.5
			c0.6,2,1.7,3.9,2.8,5.7c0.9,1.4,2,3.2,3.4,4.3c0,0.1,0,0.1,0,0.2c0.1,0.9,0.3,1.6,0.3,2.4c-4.7-2.8-7.2-7.1-9.1-12.3
			c-0.1-0.3-0.6-0.3-0.6,0.1c-0.3,6.4,4.6,12.2,10.1,14.9c0.6,0.3,1.4,0.1,1.6-0.6C223.3,503.9,223.3,502.2,222.4,500.7z"/>
		<path class="st30" d="M113.7,771.3c-3.9-17.6-7.9-35.1-11.5-52.8c-1.9-9.2-3.3-18.5-3.1-27.9c0.2-9.2,2.4-18.1,4.6-26.9
			c1.9-7.8,3.8-15.6,4.4-23.6c0.6-9-0.2-18-1.3-26.9c-2.3-18.1-5.3-36.1-7.2-54.3c-2.2-20.6-3-41.4-0.4-62.1c0-0.2-0.4-0.3-0.4-0.1
			c-5.7,35.7,0.8,71.6,5.6,106.9c1.3,9.8,2.7,19.7,2.6,29.6c0,9.6-2,18.9-4.3,28.2c-1.9,7.8-3.9,15.5-4.6,23.5
			c-0.8,8.5-0.1,17,1.3,25.4c3.4,20.5,8.7,40.8,13.1,61.1C112.7,772.3,113.8,772,113.7,771.3z"/>
		<path class="st34" d="M134.4,800.3c0.5,9.9,3.6,13.7,5.3,14.1c2.1,0.5,8.2,1.7,8.9,3.9c-2.2,1.4-10.5,1.3-18.5-2.1
			c0,0-3.7-12.2-3.7-12.2c0-0.9,3.1-4.7,3.1-4.8C129.9,799.3,134.4,799.6,134.4,800.3z"/>
		<path class="st35" d="M124.5,813.1c0.4,1.4,0.9,3.1,2.2,3.7c1.4,0.6,3-0.2,4.3-0.9c-0.1-19.3,2-23.1,2.7-35.9
			c-4.3-2.2-24.7-10.8-22.9-5.7C114.5,784.5,121.8,802.5,124.5,813.1z"/>
		<path class="st36" d="M131,815.1c3.6,10.8,2.6,7.9,7.7,16c1.9,3.1-10,6.8-15.5,0.9c-1.2-1.3,1.8-15.2,1.9-16.9
			C125.2,815.1,126.2,815.2,131,815.1z"/>
		<path class="st8" d="M99.5,326.5c4.2,24.1,9.3,46.1,15.4,69.8c-3.1-1.2-5.3,3.7-3.8,6.6c0.4,0.9,1,1.7,1.1,2.6
			c0.1,1.3-0.8,2.5-1.7,3.5c-10.3,12-17.5,26.6-21,42c-2.3,10.2-8.5,26.4-8.5,36.6c2.7,6,63.7,33.9,126.9,4.7
			c6.3-2.9,14.5-5.8,14.5-12.8c0-2.8-1.9-5.1-2.8-7.8c-3.6-10.8-9.9-69-9.5-69.9c3.8-8.6,9.7-17,9.2-26.5c-0.2-3.5-1.4-6.9-2.5-10.3
			c-5.8-17.1-11.5-34.2-17.3-51.4c-1.1-3.1-2.2-6.4-4.4-8.8c-3.4-3.7-8.6-4.9-13.5-6c-6.1-1.3-10.2-2.6-16.3-3.9
			c-14.5-3.1-35.1-3.5-49.5,2.6C103.6,302.7,97.3,314.2,99.5,326.5z"/>
		<path class="st21" d="M148.2,295.6c12.7,53.5,47.1,23.1,36.9,4.6c-2.6-4.7,1.8-18.4,1.9-23.9c-18.9-8.7-28.8-11.8-29.1-9.5
			C154.6,295.7,147.2,291.1,148.2,295.6z"/>
		<path class="st37" d="M126.6,157.2c3.3,0.6,6.3,3,7.5,6.2c5-6.7,13.3-10.2,21.5-11.7c8.2-1.4,16.6-1.1,25-1.6
			c5.3-0.3,11.1-1.2,14.6-5.3c-1.9,4.2-4.9,8-8.6,10.8c9.8-3.3,19.7,6.8,29.9,5.5c-0.8,2.2-2.5,4.1-4.6,5.1c1.4-0.5,2.9,0.2,4.2,1.1
			c4,2.7,7.5,5.9,10.4,9.7c4.1,5.2,8.3,12,8,19.1c-0.3,5.8-3.6,11.1-4.9,16.8c-0.8,3.5-0.8,7.1-1.5,10.5
			c-2.2,10.5-10.9,18.6-20.6,23.3c-0.6,0.3-1.2,0.6-1.9,0.7c-0.9,0.1-1.8-0.1-2.7-0.3c-3.9-1-7.9-1.6-11.9-1.8
			c-2.5-0.1-5-0.1-7.5,0.4c-2.3,0.5-4.4,1.6-6.6,2.6c-5.7,2.8-11.5,5.6-17.2,8.4c-3.6,1.8-7.2,3.5-11.1,4.6
			c-8.6,2.4,1.6,10.8-20-2.1c-7.6-4.6-14.9-7.8-21.9-22.5c-6.5-13.6-6.9-56.6,14.1-62.8c-3.4-1.4-6.4-5.4-7.7-8.9
			c4.8-1.3,13.3,0.9,15.4,3.3C130.3,164.1,128.7,159.6,126.6,157.2z"/>
		<path class="st31" d="M225.8,232.7c1.1,1.8,1.5,4,1.6,6.2c0.2,8.1-4.7,15.8-11.5,19.3c0.8-0.4,0.2-11,0.2-12.4
			c0.1-3.6,0.1-7.2,0-10.8c0-2.2,0-4.2,2-5.3C221,228.2,224.3,230,225.8,232.7z"/>
		<path class="st38" d="M219.9,252.6c-0.5,12-2,26.3-32.1,34.3c-8,2.1-44.2-4.3-48.4-30.9c-7,2.8-13.9-1.8-16.5-12.9
			c-4.2-18.5,10.6-20.7,13.7-13.6c-6.5-17.9,10.5-49.7,46.3-49.5C226.6,180.4,221.4,216.4,219.9,252.6z"/>
		<path class="st37" d="M133,227.1c2,6.1,5.9,11.7,11.6,14.7c-1.6-17.2,2.3-34.9,11.1-49.8c-2,9,12,16,18.9,17.2
			c-5.6-4.9-7.8-10.1-8.2-16.6c2.5,4.6,7.3,7.9,12.5,8.4c-2.6-1.8-4.9-4.1-6.7-6.7c2.9,1.1,6.7,11.8,36.6,11.4
			c-9.6-3.9-11.5-8.8-14.4-14.4c2.7,4.8,8,7.3,12.9,9.6c-1.4-2-2.7-4-4.1-6c11.5,11.6,8.4,16.8,21.2,22.3c4-11.8-1-29.4-10.8-37.2
			c-3.2-2.6-7-4.4-10.9-5.7c-23.1-8-41.6,1.4-59.2,11.5c-2.7,1.5-2.7,2.1-3.8,4.5C138.3,193.2,125.8,204.6,133,227.1z"/>
		<path class="st39" d="M138.7,765.3c-0.1,2.9-1.7,17.1-2.8,18.8c-1.9,3.1-22.5,3.6-24.8,1.8c-1.4-1.1-7-13.9-7.6-19.6
			C113.2,768.9,133.8,767.4,138.7,765.3z"/>
		<path class="st21" d="M23.5,387c-2.6,3.9-5.2,8.4-3.9,12.8c0.5,1.7,1.6,3.2,2.8,4.6c11.5,14,61.6,45.7,69.7,45.7
			c2.2,0,7.5-11,4.2-13.4c-5.7-4-40.7-40.6-40.7-42.4c0-2.4,14.2-16,18.3-19.4c5.4-4.6,10.6-9.4,15.5-14.6c0.6-0.6,1.2-1.3,1.4-2.1
			c0.2-1.2-0.5-2.3-1.2-3.2c-4.7-5.8-16.9-26.8-22.2-21.5C63,337.8,31.6,374.9,23.5,387z"/>
		<path class="st8" d="M89.8,308.9c-9.6,6.9-26.8,23.2-27.5,24.6c-4,8.2,12.5,27.8,23.1,33.2c1,0.5,2.2,1,3.3,0.7
			c0.9-0.3,20.7-13.1,23.1-15.3c2.3-2.2,4.1-10.8,5.8-13.5c2.8-4.4,5.3-8.9,7.6-13.6c2.7-5.5,5.2-9.4,5.3-15.6c0.1-4-1-6.2-3.3-9.5
			c-3.1-4.4-5.5-4.4-10.4-3.3C106.9,298.5,97.9,303.1,89.8,308.9z"/>
		<path class="st8" d="M240.6,363c3.1,5.3-13.2,14.5-21.2,18c-1.1,0.5-2,1.4-3.1,1.5c-2,0.2-3.8-1.2-5.1-2.7
			C204,372.2,200.4,362,197,352c-3.2-9.4-5.1-26.3-5.1-26.3l-1.3-24.1c0,0,12.3,6.1,16.3,9.2C226.2,325.8,231.2,347.1,240.6,363z"/>
		<g>
			<path class="st21" d="M100.4,428.4c2-1.6,4.7-4.9,7.3-5.7c2.3-0.7,5.5,0.4,7.7,1c6,1.7,10.8,4.1,17.2,3.8c0.9,0,1.5,1,1.2,1.7
				c-0.9,2.9-12.1,1.3-14.8,0.5c-0.3-0.1-0.6-0.2-0.9-0.2c0.1,0.1,0.2,0.1,0.4,0.2c2.2,1,6.6,2.7,9.1,3.8c1.5,0.4,3,1,4.5,1.1
				c2.4,0.2,2.5,3-0.2,3.3c0.3,0.4,2.2,2.9-6.2,2.2c-1.3-0.1-6.6-1.3-9.9-2.3c0.4,0.3,0.7,0.6,1.1,0.8c0.9,0.6,6,2.4,6.7,2.8
				c1.5,0.5,2.9,1.1,3.8,2.1c0.1,0.2,0.2,0.5,0.1,0.6c-1.7,2.2-7.4-0.1-9.4-0.8c-0.1,0-6.7-3-7.7-3.5c-2.2-1.1-3.7,1.3-4,1.7
				c-4.9,6.5-9.7,10.8-17.9,7.6c2.1-4.1,2.5-8.6,2.8-13.1C93.1,434.8,98.8,429.7,100.4,428.4z"/>
			<path class="st40" d="M108.6,428.4c3.4,0.9,12.6,8,22.8,9c0.2,0,0.2,0.3,0,0.3C120.8,437.2,108.1,428.2,108.6,428.4z"/>
			<path class="st40" d="M107.6,431.6c5.4,6.3,14.2,9.1,13.9,8.9C111.2,434.6,107.3,431.2,107.6,431.6z"/>
			<path class="st40" d="M111.4,426.1c3.1,1.5,9.7,4.7,9.6,4.6c-3.3-1.2-6.8-2.7-9.9-4.3C110.9,426.4,111.2,426,111.4,426.1z"/>
		</g>
		<path class="st9" d="M216.4,361.9c-2.7-9.3-6.4-18.2-9.7-27.3c-0.1-0.2-0.4-0.1-0.3,0.1c2.7,8.9,5.4,17.9,7.9,26.8
			c3,10.5,4.3,19.6-1.2,29.4c-4.1,7.4-4.2,14-4,22.4c0.3,8.9,4.9,27.3,4.9,26.6c-0.6-9.5-3-19-3.1-28.5c-0.1-5.7-0.3-11.3,2.3-16.6
			c1.6-3.3,3.8-6.2,4.9-9.8C220.5,377.6,218.6,369.2,216.4,361.9z"/>
		<g>
			<path class="st2" d="M135.7,288.5l3.2,14.2c0.2,1.1,1.9,3.4,3.7,3.4c2-0.1,2.8-2.6,2.6-3.7l-2-13.8
				C142.3,284,134.5,285.1,135.7,288.5z"/>
			<path class="st2" d="M121.8,288.4l1.3,17.4c0,1.3,1.5,4.3,3.2,4.5c2,0.2,3.2-2.8,3.2-4.2l-0.2-16.8
				C128.7,283.7,122.2,284.4,121.8,288.4z"/>
			<path class="st2" d="M116.1,289.7l-0.4,11.9c-0.1,1.1,0.8,3.6,2.4,3.9c1.8,0.4,3.2-1.9,3.4-2.9l1.8-13.3
				C123.8,285.9,116.3,285.2,116.1,289.7z"/>
			<path class="st2" d="M129,287.7l-0.3,18.8c-0.1,1.4,1.1,4.8,2.8,5.1c2,0.4,3.4-2.7,3.5-4.1l1.4-18
				C136.2,283.8,128.9,283.4,129,287.7z"/>
		</g>
		<path class="st9" d="M186.9,301.5c-0.3-0.8-1.9-2.2-1.7-1.3c1.4,6.7,1,17.7-4.8,21.3c-5.2,3.2-11.5,2.7-16.6-0.3
			c-10.3-6-10.2-17.2-15.5-26.4c-0.2-0.3-0.7-0.3-0.8,0.1c-3.6,13.6,8.3,31.3,22.4,32.7C185.2,329.2,191.4,314.3,186.9,301.5z"/>
	</g>
</g>
<polygon class="st41" points="484.8,305 506.9,267.3 501,267.2 479.1,304.8 "/>
<polygon class="st42" points="492.5,305.2 514.6,267.5 508.7,267.4 486.9,305 "/>
<polygon class="st43" points="477.1,304.8 499.2,267.1 493.3,267 471.4,304.6 "/>
<polygon class="st44" points="469.4,304.6 491.5,266.9 484.6,266.7 462.4,304.4 "/>
<polygon class="st45" points="500.2,305.4 522.3,267.8 516.4,267.6 494.6,305.3 "/>
<polygon class="st41" points="463.2,342.4 472.9,324.7 469.9,318.8 456.1,342.2 "/>
<polygon class="st42" points="470.7,342.6 476.3,332.2 473.1,326 464.2,342.4 "/>
<polygon class="st43" points="455.4,342.1 469.2,317.9 466,311.8 448.1,341.9 "/>
<polygon class="st44" points="447.4,341.9 465.5,310.6 461.9,304.8 440.1,341.7 "/>
<polygon class="st45" points="478.1,342.8 480,338.6 477,332.4 471.3,342.6 "/>
<path class="st46" d="M461.4,304.4"/>
<polygon class="st47" points="443.2,265.6 441.1,265.5 461.4,304.4 439.5,341.7 441.4,341.8 462.5,305.9 465.1,311 447,341.9 
	449,342 466,312.7 468.8,318.1 454.7,342.1 456.5,342.2 469.7,319.8 472.3,324.7 462.6,342.3 464.5,342.4 473.2,326.5 475.9,331.7 
	469.9,342.5 471.8,342.6 476.8,333.5 479.5,338.7 477.4,342.8 479.4,342.8 480.4,340.6 481.6,342.9 483.5,342.9 463.6,304.4 
	485.6,266.7 483.7,266.7 482.3,269.1 481.2,266.6 479.2,266.6 481.2,270.8 478.2,275.8 473.6,266.4 471.8,266.4 477.2,277.6 
	474.3,282.6 466.4,266.2 464.4,266.2 473.3,284.5 470.4,289.3 458.4,266 456.4,265.9 469.4,290.8 466.4,296.1 450.8,265.8 
	448.8,265.7 465.4,297.8 462.4,302.7 "/>
<polygon class="st47" points="469.4,304.6 491.5,266.9 493.3,267 471.4,304.6 491.4,343.1 489.4,343.1 "/>
<polygon class="st47" points="477.1,304.8 499.2,267.1 501,267.2 479.1,304.8 499.1,343.4 497.1,343.3 "/>
<polygon class="st47" points="484.8,305 506.9,267.3 508.7,267.4 486.8,305 506.8,343.6 504.8,343.5 "/>
<polygon class="st47" points="492.5,305.2 514.6,267.5 516.4,267.6 494.6,305.3 514.5,343.8 512.5,343.7 "/>
<polygon class="st47" points="500.2,305.4 522.3,267.8 524.1,267.8 502.3,305.5 522.3,344 520.3,343.9 "/>
<polygon class="st41" points="175.4,388.2 192.6,354.9 188,354.8 171,388.1 "/>
<polygon class="st42" points="181.3,388.4 198.5,355.1 194,355 176.9,388.3 "/>
<polygon class="st43" points="169.4,388.1 186.6,354.8 182.1,354.6 165,387.9 "/>
<polygon class="st44" points="163.4,387.9 180.6,354.6 175.3,354.4 158,387.7 "/>
<polygon class="st45" points="187.3,388.6 204.5,355.3 200,355.1 182.9,388.4 "/>
<polygon class="st41" points="158.5,421.3 166,405.6 163.7,400.4 153,421.1 "/>
<polygon class="st42" points="164.3,421.4 168.7,412.3 166.2,406.8 159.2,421.3 "/>
<polygon class="st43" points="152.5,421.1 163.2,399.7 160.8,394.3 146.8,420.9 "/>
<polygon class="st44" points="146.3,420.9 160.3,393.2 157.6,388.1 140.6,420.8 "/>
<polygon class="st45" points="170,421.6 171.5,417.9 169.2,412.4 164.8,421.4 "/>
<path class="st46" d="M157.2,387.7"/>
<polygon class="st47" points="143.2,353.6 141.6,353.5 157.2,387.7 140.1,420.7 141.6,420.8 158,389.1 160.1,393.5 145.9,420.9 
	147.4,420.9 160.8,395.1 162.9,399.8 151.9,421.1 153.3,421.1 163.6,401.3 165.6,405.6 158,421.2 159.5,421.3 166.2,407.2 
	168.3,411.8 163.7,421.4 165.1,421.4 169,413.4 171.1,418 169.5,421.6 171,421.6 171.8,419.7 172.8,421.6 174.2,421.7 158.9,387.8 
	176.1,354.5 174.6,354.4 173.5,356.6 172.6,354.4 171.1,354.3 172.7,358 170.3,362.5 166.8,354.2 165.4,354.2 169.5,364.1 
	167.3,368.5 161.2,354.1 159.6,354 166.5,370.1 164.2,374.4 155,353.9 153.4,353.8 163.5,375.8 161.1,380.4 149.1,353.7 
	147.6,353.7 160.3,381.9 158,386.3 "/>
<polygon class="st47" points="163.4,387.9 180.6,354.6 182.1,354.6 165,387.9 180.4,421.9 178.8,421.8 "/>
<polygon class="st47" points="169.4,388.1 186.6,354.8 188,354.8 171,388.1 186.4,422 184.8,422 "/>
<polygon class="st47" points="175.4,388.2 192.6,354.9 194,355 176.9,388.3 192.3,422.2 190.8,422.1 "/>
<polygon class="st47" points="181.3,388.4 198.5,355.1 200,355.1 182.9,388.4 198.3,422.3 196.8,422.3 "/>
<polygon class="st47" points="187.3,388.6 204.5,355.2 206,355.3 188.9,388.6 204.3,422.5 202.7,422.5 "/>
<polygon class="st41" points="315.6,320.5 334.6,288 329.5,287.9 310.7,320.3 "/>
<polygon class="st42" points="322.2,320.6 341.2,288.2 336.2,288 317.3,320.5 "/>
<polygon class="st43" points="308.9,320.3 327.9,287.8 322.9,287.7 304,320.1 "/>
<polygon class="st44" points="302.3,320.1 321.3,287.6 315.4,287.5 296.3,319.9 "/>
<polygon class="st45" points="328.8,320.8 347.9,288.4 342.8,288.2 324,320.7 "/>
<polygon class="st41" points="296.9,352.6 305.3,337.4 302.7,332.3 290.9,352.5 "/>
<polygon class="st42" points="303.4,352.8 308.3,343.9 305.5,338.5 297.8,352.7 "/>
<polygon class="st43" points="290.3,352.5 302.1,331.6 299.4,326.3 283.9,352.3 "/>
<polygon class="st44" points="283.4,352.3 298.9,325.3 295.9,320.3 277.1,352.1 "/>
<polygon class="st45" points="309.8,353 311.4,349.4 308.9,344.1 303.9,352.8 "/>
<path class="st46" d="M295.4,319.9"/>
<polygon class="st47" points="279.7,286.5 277.9,286.4 295.4,319.9 276.5,352.1 278.2,352.1 296.3,321.3 298.6,325.6 283,352.3 
	284.7,352.3 299.4,327.1 301.8,331.7 289.6,352.4 291.2,352.5 302.5,333.2 304.8,337.4 296.5,352.6 298.1,352.7 305.5,339 
	307.9,343.5 302.8,352.8 304.4,352.9 308.6,345 311,349.5 309.2,353 310.9,353 311.8,351.1 312.8,353.1 314.4,353.1 297.3,320 
	316.2,287.5 314.6,287.5 313.4,289.5 312.4,287.4 310.8,287.3 312.5,290.9 309.9,295.3 305.9,287.2 304.4,287.2 309,296.8 
	306.5,301.1 299.7,287 298,287 305.6,302.8 303.1,306.9 292.8,286.9 291.1,286.8 302.3,308.3 299.7,312.8 286.3,286.7 284.6,286.6 
	298.8,314.2 296.2,318.5 "/>
<polygon class="st47" points="302.3,320.1 321.3,287.6 322.9,287.7 304,320.1 321.3,353.3 319.5,353.3 "/>
<polygon class="st47" points="308.9,320.3 327.9,287.8 329.5,287.9 310.7,320.3 327.9,353.5 326.2,353.5 "/>
<polygon class="st47" points="315.6,320.5 334.6,288 336.2,288 317.3,320.5 334.5,353.7 332.8,353.6 "/>
<polygon class="st47" points="322.2,320.6 341.2,288.2 342.8,288.2 324,320.7 341.2,353.9 339.5,353.8 "/>
<polygon class="st47" points="328.8,320.8 347.8,288.4 349.4,288.4 330.6,320.9 347.8,354 346.1,354 "/>
<polygon class="st41" points="658.7,320.2 677.1,289.8 672.3,289.6 654.1,320 "/>
<polygon class="st42" points="665,320.5 683.4,290.1 678.6,289.9 660.4,320.3 "/>
<polygon class="st43" points="652.5,319.9 670.8,289.6 666.1,289.4 647.9,319.7 "/>
<polygon class="st44" points="646.2,319.7 664.6,289.3 659,289.1 640.5,319.4 "/>
<polygon class="st45" points="671.3,320.7 689.6,290.3 684.9,290.1 666.7,320.5 "/>
<polygon class="st41" points="640.8,350.3 648.8,336.1 646.5,331.2 635,350.1 "/>
<polygon class="st42" points="646.8,350.6 651.6,342.2 649,337.1 641.6,350.4 "/>
<polygon class="st43" points="634.5,350.1 645.9,330.5 643.4,325.5 628.5,349.8 "/>
<polygon class="st44" points="628,349.8 643,324.5 640.2,319.8 622,349.6 "/>
<polygon class="st45" points="652.9,350.8 654.5,347.4 652.1,342.4 647.4,350.6 "/>
<path class="st46" d="M639.7,319.4"/>
<polygon class="st47" points="625.4,287.7 623.7,287.6 639.7,319.4 621.5,349.5 623.1,349.6 640.6,320.7 642.7,324.8 627.6,349.8 
	629.2,349.9 643.4,326.3 645.6,330.7 633.8,350 635.4,350.1 646.3,332.1 648.3,336.1 640.3,350.3 641.9,350.4 649,337.5 
	651.2,341.8 646.3,350.6 647.8,350.6 651.9,343.2 654.1,347.6 652.3,350.8 653.9,350.9 654.8,349.1 655.7,350.9 657.3,351 
	641.6,319.5 659.8,289.1 658.3,289.1 657.1,291 656.2,289 654.6,288.9 656.2,292.3 653.7,296.4 650.1,288.7 648.6,288.7 
	652.9,297.8 650.5,301.9 644.2,288.5 642.6,288.4 649.6,303.4 647.2,307.2 637.7,288.2 636.1,288.1 646.4,308.5 643.9,312.8 
	631.5,288 630,287.9 643,314.1 640.5,318.1 "/>
<polygon class="st47" points="646.2,319.7 664.6,289.3 666.1,289.4 647.9,319.7 663.7,351.3 662.1,351.2 "/>
<polygon class="st47" points="652.5,319.9 670.8,289.6 672.3,289.6 654.1,320 670,351.5 668.3,351.5 "/>
<polygon class="st47" points="658.7,320.2 677.1,289.8 678.6,289.9 660.4,320.3 676.2,351.8 674.6,351.7 "/>
<polygon class="st47" points="665,320.5 683.4,290.1 684.9,290.1 666.7,320.5 682.5,352 680.9,352 "/>
<polygon class="st47" points="671.3,320.7 689.6,290.3 691.1,290.4 672.9,320.8 688.8,352.3 687.1,352.2 "/>
<g>
	<path class="st48" d="M501.9,272.7c-0.5-1.3-0.6-2.6-0.6-3.9c0-0.7,0.1-1.3,0.3-2c0.2,0.3,0.1,0.6,0,0.9c-0.1,0.4,0,0.6,0.4,0.6
		c0.2,0,0.3,0,0.5,0c9,0.8,17.9,1.6,26.9,2.5c0.1,0,0.3,0,0.4,0c0.4,0.1,0.6-0.1,0.6-0.5c0-0.2,0-0.4,0.2-0.6c0.1,0.3,0,0.7,0,1
		c-0.2,1.5-0.7,3-1.5,4.4c-0.4-0.1-0.9-0.1-1.3-0.2c-8.4-0.8-16.8-1.5-25.2-2.3C502.3,272.8,502.1,272.8,501.9,272.7z"/>
	<path class="st49" d="M530.5,269.9c0,0,0,0.1,0,0.1c-0.1,1.1-0.1,1.1-1.2,1c-9.1-0.8-18.2-1.7-27.3-2.5c-0.6-0.1-0.7-0.1-0.5-0.7
		c0.1-0.3,0.1-0.6,0.1-1c0.2-0.7,0.4-1.4,0.9-2.1c4.3,0.5,8.6,0.8,13,1.2c0.2,0,0.5,0,0.7,0.1c0.1,0,0.2,0,0.3,0c0.2,0,0.4,0,0.6,0
		c4.2,0.4,8.3,0.8,12.5,1.1c0.2,0,0.5,0,0.7,0.1C530.4,268.2,530.5,269,530.5,269.9z"/>
	<path class="st50" d="M501.9,272.7c0.2-0.1,0.3-0.1,0.5-0.1c8.7,0.8,17.5,1.6,26.2,2.4c0.2,0,0.4-0.1,0.5,0.2
		c-0.9,1.3-1.8,2.6-3,3.6c-0.2,0.1-0.5,0-0.7,0c-6.8-0.6-13.6-1.2-20.3-1.9c-0.3,0-0.6,0-0.9-0.2c-0.8-1.1-1.4-2.3-2-3.5
		C502.1,273.2,502,272.9,501.9,272.7z"/>
	<path class="st51" d="M504.1,276.8c0.7,0.1,1.4,0.1,2,0.2c6.4,0.6,12.8,1.2,19.2,1.8c0.2,0,0.5,0,0.7,0.2c-1.4,1.4-2.9,2.6-4.5,3.7
		c-0.5,0.1-1,0.1-1.4,0c-0.4-0.1-0.9,0-1.3-0.1c-3.1-0.3-6.2-0.5-9.2-0.9c-0.6-0.1-1.2,0-1.7-0.3C506.5,280,505.2,278.5,504.1,276.8
		z"/>
	<path class="st52" d="M516.1,266.1c-0.2,0.1-0.3,0.1-0.5,0c-4.2-0.4-8.5-0.8-12.7-1.2c-0.2,0-0.4,0.1-0.5-0.2
		c1.4-2.3,3.5-3.6,6.2-3.7C512.3,260.9,514.6,262.9,516.1,266.1z"/>
	<path class="st52" d="M530.1,267.4c-0.2,0.1-0.3,0.1-0.5,0c-4.2-0.4-8.4-0.8-12.6-1.2c-0.2,0-0.4,0-0.5-0.2c1.7-2.5,4.1-4,7.2-3.8
		c3,0.3,5.2,1.9,6.4,4.7C530,267.2,530,267.3,530.1,267.4z"/>
	<path class="st53" d="M507.9,281.4c2.5,0.2,5,0.5,7.5,0.7c1.5,0.1,3,0.3,4.5,0.4c0.6,0,1.1,0,1.7,0.2c-1,0.8-2.2,1.5-3.3,2.2
		c-1.2,0.8-2.5,1.5-3.8,2.2c-0.2,0.1-0.3,0.2-0.5,0c-2.1-1.8-4.1-3.6-6-5.6C508,281.5,508,281.4,507.9,281.4z"/>
</g>
</svg>
